<svg width="721" height="481" viewBox="-0.5 -0.5 721 481" version="1.1" xmlns="http://www.w3.org/2000/svg">

  <style>
    path {
      fill: none;
      fill-opacity: 0.8;
      stroke-width: 1;
      stroke: #5d4c2e;
    }
    #dz-a { fill: #d4d1cc; }
    #dz-b { fill: #d4d1cc; }
    #centerline {
      stroke-miterlimit: 4;
      stroke-dasharray: 2,1;
    }
    #legend {
    	stroke: black;
    	fill: black;
    	marker-start: url(#start-arrow);
    	marker-end: url(#end-arrow)
    }
    marker {
    	overflow:visible;
    }
    marker path {
	stroke: black;
	stroke-opacity: 1;
	fill: black;
	fill-opacity:1;
    }
  </style>

  <path id="dz-a" d="M 0,0 h 360 v 150 A 90 90 0 0 0 270,240 H 0 Z"/>
  <path id="dz-b" d="M 720,480 h -360 v -150 A 90 90 0 0 0 450,240 H 720 Z"/>
  <path d="M 270,240 A 90 90 0 0 0 360,330" />
  <path d="M 450,240 A 90 90 0 0 0 360,150" />
  <path d="M 0,0 h 720 v 480 H 0 Z"/>

  <g id="legend">
    <path d="M 270,240 h 180"/>
  </g>
  
  <defs>
    <marker orient="auto" refY="0.0" refX="0.0" id="start-arrow">
      <path d="M 8,4 L -2,0 L 8,-4 C 7,-2 7,2 8,4 Z" transform="scale(1.1) translate(4,0)" />
    </marker>
    <marker orient="auto" refY="0.0" refX="0.0" id="end-arrow">
      <path d="M 8,4 L -2,0 L 8,-4 C 7,-2 7,2 8,4 Z" transform="scale(1.1) rotate(180) translate(4,0)" />
    </marker>
  </defs>
  
</svg>

